<svg width="129" height="108" viewBox="0 0 129 108" fill="none" xmlns="http://www.w3.org/2000/svg">
<g filter="url(#filter0_d_1_3821)">
<path d="M105.629 31.1941C106.398 30.7342 107.167 30.7342 107.628 31.0408L109.166 31.9607C109.627 32.2673 109.934 32.8805 109.934 33.8003C109.934 35.4867 108.704 37.633 107.167 38.5528C106.244 39.166 105.475 38.8594 105.475 38.8594L103.63 37.7863C103.169 37.4797 102.862 36.8664 102.862 35.9466C102.862 34.2602 104.092 32.114 105.629 31.1941Z" fill="#A0A0A0"/>
<path d="M95.3276 20.9227C95.4814 20.9227 95.4814 20.9227 95.3276 20.9227C98.7102 16.7834 107.628 7.89175 117.468 12.1843C114.239 10.9579 110.242 11.7244 106.244 14.024C103.323 15.7103 100.248 18.3165 97.4802 21.8425C89.0237 32.2673 86.2561 46.218 91.1763 53.1168C91.6375 53.73 92.0988 54.3432 92.56 54.6498C83.4885 47.7511 86.5636 32.4206 95.3276 20.9227Z" fill="#383838"/>
<path d="M91.7912 31.1941C93.175 27.9747 95.1738 24.7553 97.4802 21.8425C97.7877 21.3826 98.2489 20.9227 98.5564 20.4628C101.017 17.7033 103.63 15.557 106.244 14.024C110.857 11.4178 115.469 10.8046 118.852 12.7975L119.467 13.1041C116.084 11.2645 111.472 11.7244 106.859 14.3306C104.245 15.8636 101.632 18.0099 99.1715 20.7694C98.8639 21.2293 98.4027 21.6892 98.0952 22.1491C95.7889 25.0619 93.79 28.2814 92.4063 31.5008C88.7161 39.9325 88.2549 48.5176 91.7912 53.4234C92.56 54.4965 93.4825 55.4164 94.5588 56.0296L93.9438 55.723C92.8675 55.1098 91.945 54.3432 91.1762 53.1168C87.4861 48.211 87.9474 39.4726 91.7912 31.1941Z" fill="#4F4F4F"/>
<path d="M98.0953 22.1491C100.863 18.7764 103.938 16.1702 106.859 14.3305C111.472 11.7244 116.085 11.1111 119.467 13.1041C120.697 13.8706 124.234 16.0169 125.617 21.2293C127.77 29.2012 124.08 41.0057 116.7 49.2841C113.317 53.1168 104.245 61.3952 94.5589 56.0296C93.4827 55.4163 92.5601 54.6498 91.7914 53.4234C86.8712 46.6779 89.6388 32.5739 98.0953 22.1491ZM96.0965 52.6568C99.0178 56.6428 104.245 56.9494 109.473 53.73C112.087 52.1969 114.701 49.8974 117.161 46.8313C124.541 37.6329 127.001 25.3685 122.696 19.3896C119.775 15.4037 114.547 15.0971 109.319 18.3165C106.706 19.8495 104.092 22.1491 101.632 25.2152C94.4052 34.4135 91.7914 46.6779 96.0965 52.6568Z" fill="#383838"/>
<path d="M101.17 24.4487C103.784 21.2293 106.552 18.7764 109.319 17.2433C115.008 14.0239 120.543 14.1772 123.618 18.4698C128.231 24.9086 125.463 37.9395 117.622 47.7511C115.008 50.9705 112.241 53.4234 109.473 54.9564C103.784 58.1758 98.2489 58.0225 95.1738 53.73C90.715 47.2912 93.3288 34.2602 101.17 24.4487ZM96.2501 50.8172C96.5576 51.2771 96.7114 51.4304 97.0189 51.5837C99.6327 53.1168 103.323 52.6568 107.013 50.6639C109.319 49.2841 111.779 47.2912 113.932 44.5317C120.697 36.0999 122.85 25.0619 119.006 19.5429C118.391 18.6231 117.622 18.0099 116.699 17.55C116.699 17.55 116.392 17.3966 116.238 17.3966C112.702 16.4768 105.014 19.8495 99.0177 29.6611C91.0225 43.3052 96.2501 50.8172 96.2501 50.8172Z" fill="#1E1E1E"/>
<path d="M108.858 51.277L105.629 49.4374C101.939 51.5836 98.5566 51.737 96.2503 50.3572L99.4791 52.1969C101.939 53.5766 105.322 53.27 108.858 51.277Z" fill="#C2C2C2"/>
<path d="M118.237 20.0028L115.008 18.1631C117.315 19.5429 118.852 22.4557 118.852 26.5949C118.852 29.8143 118.083 33.1871 116.546 36.4065L119.775 38.3994C121.159 35.18 122.081 31.654 122.081 28.5879C122.081 24.2954 120.544 21.3826 118.237 20.0028Z" fill="#C2C2C2"/>
<path d="M119.775 38.3994L116.546 36.5598C115.316 39.4726 113.471 42.232 111.472 44.5316L114.701 46.3713C116.7 44.0717 118.545 41.3122 119.775 38.3994Z" fill="#E7E7E7"/>
<path d="M114.701 46.3713L111.472 44.5316C109.781 46.5246 107.782 48.2109 105.629 49.4374L108.858 51.277C111.011 50.0506 113.01 48.3642 114.701 46.3713Z" fill="#C2C2C2"/>
<path d="M94.7126 41.7722L99.3252 39.0127L95.0201 40.5457C95.0201 40.3924 95.0201 40.2391 95.1738 40.0858L101.017 38.0928L103.477 36.5598L101.17 36.7131L95.3276 38.706C95.3276 38.5527 95.3276 38.3994 95.4813 38.2461L99.7865 36.7131L95.9426 37.0197C95.9426 36.8664 96.0964 36.7131 96.0964 36.5598L101.17 36.0999L103.477 35.3333L101.632 35.0267L96.2501 35.6399C96.2501 35.4866 96.2501 35.3333 96.4039 35.18L100.401 34.7201L96.8651 33.9536C96.8651 33.8003 97.0189 33.647 97.0189 33.647L101.632 34.5668L103.63 34.2602L102.093 33.4937L97.3264 32.8804C97.4802 32.7271 97.4802 32.5738 97.6339 32.5738L101.17 33.0338L98.4027 31.654C98.4027 31.5007 98.5564 31.5007 98.5564 31.3474L102.247 33.1871L104.399 33.4937L103.015 31.9606L99.3252 30.2743C99.3252 30.121 99.479 30.121 99.479 29.9677L102.247 31.1941L100.094 29.0478C100.094 28.8945 100.248 28.8945 100.248 28.7412L103.015 31.654L104.86 32.7271L103.784 30.5809L101.17 27.9747C101.17 27.8214 101.324 27.8214 101.478 27.6681L103.323 29.5077L101.939 26.9015C102.093 26.7482 102.093 26.7482 102.247 26.5949L104.245 30.4276L105.783 31.9606L105.168 29.5077L103.169 25.6751C103.323 25.5218 103.323 25.5218 103.477 25.3685L104.86 27.9747L104.092 24.602C104.245 24.4487 104.245 24.2954 104.399 24.2954L105.475 29.3544L106.09 30.5809L105.937 28.5879L104.553 23.9887C104.707 23.8354 104.707 23.8354 104.86 23.6821L105.783 26.9015L105.475 23.0689C105.629 22.9156 105.783 22.7623 105.783 22.7623L106.09 28.5879L106.705 30.8875L107.013 27.8214L106.705 21.6892C106.859 21.5359 107.013 21.5359 107.013 21.3826L107.32 25.6751L108.243 20.4627C108.397 20.3094 108.55 20.3094 108.704 20.1561L107.782 27.5148V29.661L108.397 27.2082L109.165 19.8495C109.319 19.6962 109.473 19.6962 109.627 19.5429L109.165 25.0619L110.703 19.083C110.857 19.083 111.011 19.083 111.164 19.083L109.012 27.3615L108.704 30.121L109.934 27.0548L112.087 18.7764C112.241 18.7764 112.394 18.7764 112.548 18.6231L111.011 24.602L113.624 18.3165C113.778 18.3165 113.932 18.3165 114.086 18.1631L110.396 26.9015L109.934 28.7412L110.857 27.0548L114.086 18.3165C114.239 18.1631 114.239 18.1631 114.239 18.1631L114.393 18.3165C114.393 18.3165 114.393 18.3165 114.393 18.4698L112.087 24.7553L115.162 18.9297C115.316 18.7764 115.316 18.7764 115.316 18.7764L115.469 18.9297V19.083L111.011 27.3615L109.934 30.121L111.779 27.6681L116.392 19.2363C116.546 19.083 116.546 18.9297 116.546 18.9297H116.699V19.083L113.317 25.2152L117.314 19.6962C117.468 19.5429 117.468 19.5429 117.468 19.5429H117.622C117.622 19.5429 117.622 19.5429 117.468 19.5429C117.468 19.5429 117.468 19.5429 117.622 19.5429V19.6962L112.087 27.3615L110.703 29.9677L112.548 28.128L117.929 20.4627C118.083 20.3094 118.083 20.3094 118.083 20.4627H118.237C118.237 20.4627 118.237 20.4627 118.083 20.4627C118.083 20.4627 118.083 20.4627 118.237 20.4627V20.616L114.239 26.2883L118.852 21.5359C118.852 21.5359 118.852 21.5359 119.006 21.5359H119.16C119.16 21.5359 119.16 21.6892 119.16 21.8425L112.856 28.2813L111.164 30.5809L113.317 28.8945L119.621 22.1491C119.621 22.1491 119.621 22.1491 119.775 22.1491H119.928C119.928 22.1491 119.928 22.3024 119.928 22.4557L115.162 27.5148L120.236 23.5288C120.236 23.5288 120.236 23.5288 120.39 23.5288H120.543C120.543 23.6821 120.543 23.6821 120.543 23.8354L113.778 29.2011L112.087 31.0408L113.932 29.9677L120.543 24.4487C120.543 24.4487 120.543 24.4487 120.697 24.4487H120.851C120.851 24.602 120.851 24.602 120.851 24.7553L115.162 29.5077L120.39 26.5949C120.39 26.5949 120.39 26.5949 120.543 26.5949H120.697C120.697 26.5949 120.697 26.7482 120.543 26.7482L113.624 30.7342L111.626 32.4205L113.624 31.8073L120.543 27.5148C120.543 27.5148 120.543 27.5148 120.697 27.5148H120.851C120.851 27.5148 120.851 27.6681 120.697 27.6681L115.316 31.1941L120.543 29.3544C120.543 29.3544 120.543 29.3544 120.697 29.3544H120.851C120.851 29.3544 120.851 29.3544 120.697 29.3544C120.697 29.3544 120.851 29.3544 120.851 29.5077C120.851 29.661 120.851 29.661 120.697 29.661L113.778 32.1139L111.164 33.647L113.471 33.4937L120.236 31.1941C120.236 31.1941 120.236 31.1941 120.39 31.1941H120.543C120.543 31.1941 120.543 31.1941 120.39 31.1941C120.39 31.1941 120.543 31.1941 120.543 31.3474C120.543 31.3474 120.543 31.5007 120.39 31.5007L114.854 33.4937L119.928 33.0338L120.082 33.1871C120.082 33.1871 120.082 33.1871 120.082 33.3404C120.082 33.3404 120.082 33.4937 119.928 33.4937L113.471 33.9536L111.164 34.7201L113.009 35.0267L119.621 34.2602L119.775 34.4135C119.775 34.4135 119.775 34.4135 119.775 34.5668C119.775 34.5668 119.775 34.7201 119.621 34.7201L114.239 35.3333L119.006 36.2532L119.16 36.4065V36.5598L119.006 36.7131L113.163 35.4866L111.164 35.7932L112.702 36.5598L118.852 37.3263L119.006 37.4796V37.6329L118.852 37.7862L113.778 37.173L118.083 39.3193H118.237V39.4726L118.083 39.6259H117.929L112.702 37.0197L110.549 36.7131L111.933 38.2461L117.161 40.699H117.314V40.8523L117.161 41.0056H117.007L112.548 39.0127L116.084 42.5387C116.084 42.5387 116.084 42.692 115.931 42.8453H115.777H115.623L111.472 38.5527L109.627 37.7862L110.703 39.9325L115.008 44.0717C115.008 44.0717 115.008 44.225 114.854 44.3783H114.701H114.547L111.164 41.0056L113.624 45.7581C113.624 45.7581 113.624 45.9114 113.471 46.0647H113.317H113.163L110.242 40.2391L108.704 38.706L109.319 41.3122L112.548 46.5246C112.548 46.5246 112.548 46.6779 112.394 46.8312H112.241H112.087L109.781 42.3854L111.011 47.9044C111.011 47.9044 111.011 48.0577 110.857 48.211H110.703H110.549L109.012 41.1589L108.397 39.9325L108.55 41.9255L110.549 48.6709C110.549 48.6709 110.549 48.8242 110.396 48.9775H110.242H110.088L108.55 43.9184L109.165 49.5907C109.165 49.5907 109.165 49.744 109.012 49.744H108.858H108.704L108.243 41.9255L107.628 39.6259L107.32 42.692L107.782 50.3572C107.782 50.3572 107.782 50.5105 107.628 50.5105H107.474H107.32L107.013 44.8383L106.244 51.2771C106.244 51.2771 106.244 51.4304 106.09 51.4304C106.09 51.4304 106.09 51.4304 105.937 51.4304H105.783C105.783 51.4304 105.783 51.4304 105.783 51.2771L106.859 42.8453L106.705 40.699L106.09 43.1519L105.322 51.4304C105.322 51.5837 105.322 51.5837 105.168 51.5837C105.168 51.5837 105.168 51.5837 105.014 51.5837H104.86C104.86 51.5837 104.86 51.5837 104.86 51.4304L105.475 45.2982L103.784 51.737C103.784 51.737 103.784 51.8903 103.63 51.8903L103.477 51.737C103.477 51.737 103.477 51.737 103.477 51.5837L105.783 42.8453L105.937 40.2391L104.707 43.3052L102.4 52.0436C102.4 52.0436 102.4 52.1969 102.247 52.1969L102.093 52.0436C102.093 52.0436 102.093 52.0436 102.093 51.8903L103.784 45.6048L101.017 52.0436L100.863 52.1969L100.709 52.0436V51.8903L104.399 43.1519L104.86 41.3122L103.938 42.9986L100.709 51.5837L100.555 51.737L100.401 51.5837V51.4304L102.708 45.1449L99.479 51.1238L99.3252 51.2771H99.1715C99.1715 51.1238 103.63 42.8453 103.63 42.8453L104.707 40.0858L102.862 42.5387L98.2489 50.9705L98.0952 51.1238L97.9414 50.9705C97.9414 50.8172 101.324 44.6849 101.324 44.6849L97.3264 50.2039H97.1726H97.0189H96.8651C96.8651 50.2039 96.8651 50.2039 96.8651 50.0506C96.8651 49.8973 102.554 42.2321 102.554 42.2321L103.938 39.6259L102.093 41.4655L96.7114 49.1308H96.5576H96.4039H96.2501C96.2501 49.1308 96.2501 49.1308 96.2501 48.9775C96.2501 48.8242 100.401 43.1519 100.401 43.1519L95.7889 47.9044H95.6351H95.4813V47.7511C95.4813 47.7511 95.4813 47.7511 95.4813 47.5977L101.785 41.1589L103.477 38.8594L101.324 40.5457L95.0201 47.2911C95.0201 47.1378 95.0201 46.9845 94.8663 46.8312L99.479 41.9255L94.7126 45.6048C94.7126 45.4515 94.7126 45.2982 94.7126 45.1449L101.017 40.2391L102.862 38.706L101.017 39.7792L94.7126 45.1449C94.7126 44.9916 94.7126 44.8383 94.7126 44.6849L99.3252 40.699L94.5588 43.4585C94.5588 43.3052 94.5588 43.1519 94.5588 42.9986L100.863 39.4726L102.862 37.6329L100.863 38.3994L94.5588 42.2321V42.0788C94.5588 41.9255 94.7126 41.7722 94.7126 41.7722ZM109.473 31.1941L109.319 31.654L109.781 31.1941L110.549 29.661L109.473 31.1941ZM110.088 31.5007L109.781 32.1139L110.242 31.8073L111.164 30.4276L110.088 31.5007ZM112.087 32.7271L110.703 33.1871L109.934 33.8003H110.242L112.087 32.7271ZM112.087 34.1069L110.549 34.2602L110.088 34.5668H110.549L112.087 34.1069ZM111.779 35.18L110.396 34.8734L109.781 35.0267L110.242 35.18H111.779ZM111.472 36.4065L110.242 35.7932L109.473 35.9466L109.781 36.2532L111.472 36.4065ZM110.857 37.6329L109.781 36.5598H109.165L109.473 37.173L110.857 37.6329ZM109.934 38.706L109.165 37.173L108.704 37.0197L108.858 37.6329L109.934 38.706ZM108.397 38.8594L108.858 39.6259L108.55 37.9395L108.397 37.7862V38.8594ZM108.243 29.3544L107.935 30.7342V31.3474L108.089 30.8875L108.243 29.3544ZM108.089 40.0858L107.935 38.8594L107.628 38.2461V38.5527L108.089 40.0858ZM107.474 30.8875V29.661L107.167 31.5007L107.32 31.8073L107.474 30.8875ZM107.013 40.5457L107.32 38.706L107.167 38.3994L106.859 39.3193L107.013 40.5457ZM102.4 36.0999L103.938 35.9466L104.399 35.6399L103.938 35.4866L102.4 36.0999ZM102.708 34.8734L104.092 35.18L104.707 35.0267L104.245 34.8734H102.708ZM103.015 33.8003L104.245 34.4135L104.86 34.2602L104.553 33.9536L103.015 33.8003ZM106.859 31.8073V31.5007L106.398 29.9677V31.1941L106.859 31.8073ZM106.552 39.3193V38.706L106.398 39.166L106.244 40.8523L106.552 39.3193ZM106.09 32.2672V31.3474L105.629 30.5809L106.09 32.2672ZM105.783 33.1871L105.629 32.5738L104.553 31.5007L105.322 33.0338L105.783 33.1871ZM105.014 33.1871L103.63 32.5738L104.707 33.647H105.322L105.014 33.1871ZM105.014 38.8594L105.168 38.3994L104.707 38.8594L103.938 40.3924L105.014 38.8594ZM104.399 38.706L104.707 38.0928L104.245 38.3994L103.323 39.7792L104.399 38.706ZM103.784 37.0197L104.399 36.4065H104.092L102.4 37.4796L103.784 37.0197Z" fill="#A0A0A0"/>
<path d="M108.858 19.083C117.007 14.3305 123.772 18.1632 123.772 27.5148C123.772 36.8664 117.161 48.3643 109.012 53.1167C100.863 57.8692 94.0976 54.0366 94.0976 44.6849C93.9438 35.18 100.709 23.6821 108.858 19.083ZM108.858 51.2771C116.084 47.1378 122.081 36.8664 122.081 28.4346C122.081 20.0028 116.084 16.6301 108.858 20.9226C101.632 25.0619 95.6351 35.3333 95.6351 43.7651C95.6351 52.0436 101.632 55.4163 108.858 51.2771Z" fill="#686868"/>
<path d="M107.782 32.4206C108.551 31.9607 109.319 31.9607 109.781 32.2673L111.318 33.1872C111.779 33.4938 112.087 34.107 112.087 35.0268C112.087 36.7132 110.857 38.8595 109.319 39.7793C108.397 40.3925 107.628 40.0859 107.628 40.0859L105.783 39.0128C105.322 38.7062 105.014 38.0929 105.014 37.1731C105.014 35.4867 106.244 33.3405 107.782 32.4206Z" fill="#686868"/>
<path d="M85.4875 29.5077C87.4863 25.2152 90.1001 20.9226 93.1752 17.3966C95.789 14.4838 98.7103 11.8776 101.785 10.1912C107.321 6.97184 112.394 6.66523 115.931 8.8115L124.08 13.564L93.6364 34.2602C93.6364 34.2602 93.6364 34.4135 93.4827 34.4135L85.3337 29.661C85.4875 29.661 85.4875 29.5077 85.4875 29.5077Z" fill="#FFAF24"/>
<path d="M109.934 14.9438C114.547 12.3376 118.698 11.7244 122.081 12.7975C123.311 13.2574 124.387 13.8706 125.464 14.6372V16.1702L93.4827 34.5669C97.019 26.2884 103.015 18.7764 109.934 14.9438Z" fill="#CD8005"/>
<path opacity="0.5" d="M94.0977 32.8804C94.559 31.9606 95.0203 30.4275 95.9428 28.8945C96.4041 28.1279 96.8653 27.2081 97.4803 26.2883C98.0954 25.3684 98.7104 24.4486 99.3254 23.5288C100.094 22.609 100.709 21.6891 101.632 20.7693C102.4 19.8495 103.323 19.0829 104.246 18.1631C106.091 16.4767 108.089 15.097 110.242 14.0239C111.318 13.4106 112.395 13.104 113.317 12.6441C114.086 12.3375 115.162 12.1842 116.085 12.0309C117.93 11.7243 119.467 11.8776 120.544 12.1842C121.005 12.3375 121.466 12.3375 121.774 12.4908C121.927 12.6441 122.081 12.6441 122.081 12.6441C122.081 12.6441 121.466 12.4908 120.39 12.4908C119.313 12.3375 117.776 12.4908 116.085 12.9507C115.162 13.104 114.393 13.4106 113.317 13.8706C112.395 14.3305 111.472 14.7904 110.549 15.2503C109.627 15.8635 108.704 16.4767 107.782 17.09C106.859 17.8565 105.937 18.4697 105.014 19.3895C104.092 20.1561 103.323 20.9226 102.554 21.8424C101.785 22.7623 101.017 23.5288 100.248 24.4486C98.8641 26.135 97.6341 27.8213 96.5578 29.3544C95.6353 30.8874 94.7128 32.1139 94.2515 33.0337C93.7902 33.9535 93.4827 34.4135 93.4827 34.4135C93.4827 34.4135 93.6365 33.8002 94.0977 32.8804Z" fill="#FFAF24"/>
<path d="M88.7163 52.0436C88.1012 52.8101 54.5828 72.2799 52.4302 72.4332L43.3587 65.841C42.2824 65.0745 41.5136 63.8481 41.2061 62.4683C39.9761 56.4894 38.5923 47.1378 38.4385 41.9254C38.4385 40.0858 38.4385 38.2461 39.0536 36.4064C40.1298 33.3403 42.7437 30.8875 45.665 29.3544C48.5863 27.8214 51.8152 27.2081 55.044 26.4416C57.6579 25.8284 60.1179 25.3685 62.7318 24.7552C65.0381 24.2953 67.3444 23.6821 69.6507 23.2222C74.1096 22.3024 78.5685 21.5358 83.1811 20.9226C85.4874 20.616 87.7937 20.3094 89.9463 20.0028C91.1763 19.8495 94.8664 21.5358 96.8652 22.9156C97.634 23.3755 97.634 24.4486 97.019 25.0619C87.7937 35.4866 89.3313 51.1237 88.7163 52.0436Z" fill="#4F4D4C"/>
<path opacity="0.6" d="M41.0524 45.4515C41.8212 42.8453 42.2825 38.2462 43.9738 35.1801L54.7366 41.4656C54.7366 41.4656 47.2026 54.8031 47.2026 56.1829C47.2026 59.8622 47.3564 64.4614 48.1251 69.0605L43.5125 65.6878C42.4362 64.9213 41.6674 63.6948 41.3599 62.3151C40.7449 59.4023 40.1299 55.5696 39.6686 52.0436C39.9761 49.8974 40.4374 47.7511 41.0524 45.4515Z" fill="#333333"/>
<path opacity="0.7" d="M91.9451 30.5809C91.9451 30.5809 86.5637 38.7061 87.0249 50.8172L80.2597 47.9044L71.6495 41.4656L91.7913 29.8144L91.9451 30.5809Z" fill="#282828"/>
<path d="M18.4505 81.3249C19.2193 80.865 19.988 80.865 20.4493 81.1716L21.9868 82.0914C22.4481 82.398 22.7556 83.0112 22.7556 83.9311C22.7556 85.6174 21.5256 87.7637 19.988 88.6835C19.0655 89.2968 18.2967 88.9901 18.2967 88.9901L16.4517 87.917C15.9904 87.6104 15.6829 86.9972 15.6829 86.0773C15.6829 84.391 16.9129 82.2447 18.4505 81.3249Z" fill="#A0A0A0"/>
<path d="M8.30272 71.0534C11.6853 66.9142 20.6031 58.0225 30.4434 62.315C27.2145 61.0886 23.2169 61.8551 19.2193 64.1547C16.2979 65.841 13.2229 68.4472 10.4553 71.9733C1.99879 82.398 -0.768784 96.3488 4.15136 103.248C4.61262 103.861 5.07387 104.474 5.53514 104.781C-3.69013 97.8818 -0.461279 82.5513 8.30272 71.0534Z" fill="#383838"/>
<path d="M4.61277 81.3249C5.99656 78.1055 7.99537 74.8861 10.3017 71.9733C10.6092 71.5134 11.0705 71.0534 11.378 70.5935C13.838 67.834 16.4519 65.6878 19.0657 64.1547C23.6783 61.5485 28.291 60.9353 31.6736 62.9283L32.2886 63.2349C28.906 61.2419 24.4471 61.8551 19.6807 64.4613C17.0669 65.9944 14.4531 68.1406 11.993 70.9001C11.6855 71.3601 11.2242 71.82 10.9167 72.2799C8.61038 75.1927 6.61158 78.4121 5.22779 81.6315C1.53768 90.0633 1.07641 98.6484 4.61277 103.554C5.38154 104.627 6.30407 105.547 7.38035 106.16L6.76533 105.854C5.68905 105.24 4.76652 104.474 3.99775 103.248C0.461393 98.3418 0.922659 89.6034 4.61277 81.3249Z" fill="#4F4F4F"/>
<path d="M10.9166 72.2798C13.6842 68.9071 16.7593 66.3009 19.8344 64.4613C24.447 61.8551 29.0597 61.2419 32.4423 63.2348C33.6723 64.0014 37.2086 66.1476 38.5924 71.36C40.745 79.3319 37.0549 91.1364 29.6747 99.4149C26.2921 103.247 17.2206 111.526 7.53403 106.16C6.45775 105.547 5.53522 104.781 4.76645 103.554C-0.307449 96.8087 2.61388 82.7046 10.9166 72.2798ZM9.07158 102.788C11.9929 106.774 17.2206 107.08 22.4482 103.861C25.062 102.328 27.6759 100.028 30.1359 96.962C37.5162 87.7637 39.9762 75.4993 35.6711 69.5204C32.7498 65.5344 27.5221 65.2278 22.2945 68.4472C19.6806 69.9803 17.0668 72.2798 14.6067 75.3459C7.22652 84.5443 4.76645 96.8087 9.07158 102.788Z" fill="#383838"/>
<path d="M14.1454 74.5794C16.7592 71.36 19.5268 68.9071 22.2943 67.3741C27.9833 64.1547 33.5184 64.308 36.5935 68.6005C41.2061 75.0393 38.4386 88.0703 30.5971 97.8818C27.9833 101.101 25.2157 103.554 22.4481 105.087C16.7592 108.307 11.224 108.153 8.14892 103.861C3.69004 97.4219 6.30387 84.391 14.1454 74.5794ZM9.2252 100.948C9.53271 101.408 9.68646 101.561 9.99397 101.714C12.6078 103.247 16.2979 102.788 19.988 100.795C22.2943 99.4149 24.7544 97.4219 26.907 94.6624C33.5184 86.3839 35.8247 75.1926 31.9809 69.827C31.3659 68.9071 30.5971 68.2939 29.6746 67.834C29.5208 67.834 29.367 67.6807 29.2133 67.6807C25.6769 66.7609 17.9892 70.1336 11.9928 79.9451C3.8438 93.436 9.2252 100.948 9.2252 100.948Z" fill="#1E1E1E"/>
<path d="M21.8333 101.408L18.6044 99.5681C14.9143 101.714 11.5317 101.868 9.22538 100.488L12.4542 102.328C14.7605 103.707 18.1431 103.401 21.8333 101.408Z" fill="#C2C2C2"/>
<path d="M31.2123 70.1335L27.9835 68.2939C30.2898 69.6736 31.8273 72.5864 31.8273 76.7257C31.8273 79.9451 31.0585 83.3178 29.521 86.5372L32.7498 88.3769C34.1336 85.1575 35.0562 81.6314 35.0562 78.5653C35.0562 74.4261 33.5186 71.5133 31.2123 70.1335Z" fill="#C2C2C2"/>
<path d="M32.7498 88.5302L29.5209 86.6905C28.2909 89.6033 26.4458 92.3628 24.447 94.6624L27.6759 96.502C29.6747 94.2024 31.366 91.443 32.7498 88.5302Z" fill="#E7E7E7"/>
<path d="M27.6758 96.502L24.4469 94.6624C22.7556 96.6553 20.7568 98.3417 18.6043 99.5681L21.8331 101.408C23.8319 100.181 25.8307 98.495 27.6758 96.502Z" fill="#C2C2C2"/>
<path d="M7.53408 91.903L12.1467 89.1435L7.84159 90.6765C7.84159 90.5232 7.84159 90.3699 7.99535 90.2166L13.6843 88.0703L16.1443 86.5373L13.838 86.6906L7.99535 88.6835C7.99535 88.5302 7.99535 88.3769 8.1491 88.2236L12.4542 86.6906L8.61036 86.9972C8.61036 86.8439 8.76412 86.6906 8.76412 86.5373L13.838 86.384L16.1443 85.6174L14.2993 85.3108L8.91787 85.9241C8.91787 85.7708 8.91787 85.6174 9.07162 85.4641L13.0692 85.0042L9.53289 84.2377C9.53289 84.0844 9.68665 83.9311 9.68665 83.9311L14.2993 84.8509L16.2981 84.5443L14.7605 83.7778L9.99415 83.1646C10.1479 83.0113 10.1479 82.858 10.3017 82.858L13.838 83.3179L11.0704 81.9381C11.0704 81.7848 11.2242 81.7848 11.2242 81.6315L14.9143 83.4712L17.0669 83.7778L15.6831 82.2447L11.993 80.5584C11.993 80.4051 12.1467 80.4051 12.1467 80.2518L14.9143 81.4782L12.7617 79.3319C12.7617 79.1786 12.9155 79.1786 12.9155 79.0253L15.6831 81.9381L17.5281 82.7046L16.4518 80.5584L13.838 77.9522C13.838 77.7989 13.9918 77.7989 14.1455 77.6456L15.9906 79.4852L14.6068 76.8791C14.7605 76.7257 14.7605 76.7257 14.9143 76.5724L16.9131 80.4051L18.4506 81.9381L17.8356 79.3319L15.8368 75.4993C15.9906 75.346 15.9906 75.346 16.1443 75.1927L17.5281 77.7989L16.7593 74.4262C16.9131 74.2729 16.9131 74.1196 17.0669 74.1196L18.2969 79.3319L18.9119 80.5584L18.7582 78.5654L17.3744 73.9663C17.5281 73.813 17.5281 73.8129 17.6819 73.6596L18.6044 76.8791L18.2969 73.0464C18.4506 72.8931 18.6044 72.7398 18.6044 72.7398L18.9119 78.5654L19.8344 80.7117L20.1419 77.6456L19.8344 71.5134C19.9882 71.3601 20.1419 71.3601 20.1419 71.2068L20.4495 75.6526L21.0645 70.5935C21.2182 70.4402 21.372 70.4402 21.5257 70.2869L20.6032 77.6456L20.757 79.7919L21.372 77.339L22.1408 69.9803C22.2945 69.827 22.4483 69.827 22.602 69.6737L22.1408 75.1927L23.6783 69.2138C23.8321 69.2138 23.9858 69.2138 24.1396 69.2138L21.987 77.4923L21.6795 80.2518L22.9095 77.1857L25.0621 69.0605C25.2158 69.0605 25.3696 69.0605 25.5233 68.9072L23.9858 74.8861L26.5996 68.6006C26.7534 68.6006 26.9071 68.6006 27.0609 68.4473L23.3708 77.1857L22.9095 79.0253L23.832 77.339L27.0609 68.6006C27.2146 68.4473 27.2147 68.4473 27.2147 68.4473L27.3684 68.6006C27.3684 68.6006 27.3684 68.6006 27.3684 68.7539L25.0621 75.0394L28.2909 69.0605C28.4447 68.9072 28.4447 68.9072 28.4447 68.9072L28.5984 69.0605V69.2138L24.1396 77.4923L23.0633 80.2518L24.9083 77.7989L29.521 69.3671C29.6747 69.2138 29.6747 69.2138 29.6747 69.2138H29.8285V69.3671L26.4459 75.4993L30.4435 69.9803C30.5972 69.827 30.5972 69.827 30.5972 69.827H30.751C30.751 69.827 30.751 69.827 30.5972 69.827C30.5972 69.827 30.5972 69.827 30.751 69.827V69.9803L25.2158 77.6456L23.832 80.2518L25.6771 78.4121L31.0585 70.7468C31.2123 70.5935 31.2123 70.5935 31.2123 70.7468H31.366C31.366 70.7468 31.366 70.7468 31.2123 70.7468C31.2123 70.7468 31.2123 70.7468 31.366 70.7468V70.9002L27.3684 76.5724L31.981 71.82C31.981 71.82 31.981 71.82 32.1348 71.82H32.2885C32.2885 71.82 32.2885 71.9733 32.2885 72.1266L25.9846 78.5654L24.2933 80.865L26.4459 79.1786L32.7498 72.4332C32.7498 72.4332 32.7498 72.4332 32.9036 72.4332H33.0573C33.0573 72.4332 33.0573 72.5865 33.0573 72.7398L28.2909 77.7989L33.0573 74.1196C33.0573 74.1196 33.0573 74.1196 33.2111 74.1196H33.3648C33.3648 74.2729 33.3648 74.2729 33.3648 74.4262L26.5996 79.7919L24.9083 81.6315L26.7534 80.5584L33.3648 75.0394C33.3648 75.0394 33.3648 75.0394 33.5186 75.0394H33.6723C33.6723 75.1927 33.6723 75.1927 33.6723 75.346L28.5984 79.6385L33.8261 76.7257C33.8261 76.7257 33.8261 76.7257 33.9798 76.7257H34.1336C34.1336 76.7257 34.1336 76.8791 33.9798 76.8791L27.0609 80.865L25.0621 82.5513L27.0609 81.7848L33.9798 77.4923C33.9798 77.4923 33.9798 77.4923 34.1336 77.4923H34.2874C34.2874 77.4923 34.2873 77.6456 34.1336 77.6456L28.7522 80.865L33.9798 79.0253C33.9798 79.0253 33.9798 79.0253 34.1336 79.0253H34.2874C34.2874 79.0253 34.2873 79.0253 34.1336 79.0253C34.1336 79.0253 34.2874 79.0253 34.2874 79.1786C34.2874 79.3319 34.2873 79.3319 34.1336 79.3319L27.2147 81.7848L24.6008 83.3179L26.9071 83.1646L33.8261 80.7117C33.8261 80.7117 33.8261 80.7117 33.9798 80.7117H34.1336C34.1336 80.7117 34.1336 80.7117 33.9798 80.7117C33.9798 80.7117 34.1336 80.7117 34.1336 80.865C34.1336 80.865 34.1336 81.0183 33.9798 81.0183L28.4447 83.0113L33.5186 82.5513L33.6723 82.7046C33.6723 82.7046 33.6723 82.7046 33.6723 82.858C33.6723 82.858 33.6723 83.0113 33.5186 83.0113L27.0609 83.4712L24.7546 84.2377L25.9846 85.1575L32.5961 84.391L32.7498 84.5443C32.7498 84.5443 32.7498 84.5443 32.7498 84.6976C32.7498 84.6976 32.7498 84.8509 32.5961 84.8509L27.2147 85.4641L31.8273 86.384L31.981 86.5373V86.6906L31.8273 86.8439L25.9846 85.6174L23.9858 85.9241L25.5233 86.6906L31.6735 87.4571L31.8273 87.6104V87.7637L31.6735 87.917L26.5996 87.3038L30.9048 89.4501H31.0585V89.6034L30.9048 89.7567H30.751L25.5233 87.1505L23.3708 86.8439L24.7546 88.3769L29.9822 90.8298H30.136V90.9831L29.9822 91.1364H29.8285L25.3696 89.1435L28.7522 92.5162C28.7522 92.5162 28.7522 92.6695 28.5984 92.8228H28.4447H28.2909L24.1396 88.5302L22.2945 87.7637L23.3708 89.91L27.9834 94.0492C27.9834 94.0492 27.9834 94.2025 27.8297 94.3558H27.6759H27.5222L24.1396 90.9831L26.7534 95.5823C26.7534 95.5823 26.7534 95.7356 26.5996 95.8889H26.4459H26.2921L23.3708 90.0633L21.8332 88.5302L22.4483 90.9831L25.3696 96.6554C25.3696 96.6554 25.3696 96.8087 25.2158 96.962H25.0621H24.9083L22.602 92.5162L23.832 98.0352C23.832 98.0352 23.8321 98.1885 23.6783 98.3418H23.5245H23.3708L21.8332 91.2897L21.2182 90.0633L21.372 92.0563L23.5245 98.6484C23.5245 98.6484 23.5245 98.8017 23.3708 98.955H23.217H23.0633L21.5257 93.8959L21.987 99.8748C21.987 99.8748 21.987 100.028 21.8332 100.028H21.6795H21.5257L21.0645 92.2096L20.4495 89.91L20.1419 92.9761L20.6032 100.641C20.6032 100.641 20.6032 100.795 20.4495 100.795H20.2957H20.1419L19.8344 95.1224L19.0657 101.561C19.0657 101.561 19.0657 101.714 18.9119 101.714C18.9119 101.714 18.9119 101.714 18.7582 101.714H18.6044C18.6044 101.714 18.6044 101.714 18.6044 101.561L19.6807 93.1294L19.5269 90.9831L18.9119 93.436L18.1431 101.714C18.1431 101.868 18.1431 101.868 17.9894 101.868C17.9894 101.868 17.9894 101.868 17.8356 101.868H17.6819C17.6819 101.868 17.6819 101.868 17.6819 101.714L18.2969 95.5823L16.6056 102.021C16.6056 102.021 16.6056 102.174 16.4518 102.174L16.2981 102.021C16.2981 102.021 16.2981 102.021 16.2981 101.868L18.6044 93.1294L18.9119 90.3699L17.6819 93.436L15.3756 102.174C15.3756 102.174 15.3756 102.328 15.2218 102.328L15.0681 102.174C15.0681 102.174 15.0681 102.174 15.0681 102.021L16.7593 95.7356L13.9918 102.174L13.838 102.328L13.6843 102.174V102.021L17.3744 93.2827L17.8356 91.443L16.9131 93.1294L13.6843 101.714L13.5305 101.868L13.3768 101.714V101.561L15.6831 95.2757L12.4542 101.255L12.3005 101.408H12.1467C12.1467 101.255 16.6056 92.9761 16.6056 92.9761L17.6819 90.2166L15.8368 92.6695L11.2242 101.101L11.0704 101.255L10.9167 101.101C10.9167 100.948 14.2993 94.8158 14.2993 94.8158L10.3017 100.335H10.1479H9.99415H9.8404C9.8404 100.335 9.8404 100.335 9.8404 100.181C9.8404 100.028 15.5293 92.3629 15.5293 92.3629L16.7593 90.0633L14.9143 91.903L9.53289 99.5682H9.37913H9.22538H9.07162C9.07162 99.5682 9.07162 99.5682 9.07162 99.4149C9.07162 99.2616 13.223 93.5893 13.223 93.5893L8.61036 98.3418H8.45661H8.30285V98.1885C8.30285 98.1885 8.30285 98.1885 8.30285 98.0352L14.6068 91.5963L16.2981 89.2968L14.1455 90.9831L7.84159 97.7286C7.84159 97.5753 7.84159 97.4219 7.68783 97.2686L12.3005 92.3629L7.53408 96.0422C7.53408 95.8889 7.53408 95.7356 7.53408 95.5823L13.838 90.6765L15.5293 88.8369L13.6843 89.91L7.38033 95.2757C7.38033 95.1224 7.38033 94.9691 7.38033 94.8158L11.993 90.8298L7.22658 93.5893C7.22658 93.436 7.22658 93.2827 7.22658 93.1294L13.838 89.4501L15.8368 87.7637L13.838 88.5302L7.53408 92.3629V92.2096C7.53408 92.0563 7.53408 91.903 7.53408 91.903ZM22.4483 81.3249L22.2945 81.7848L22.7558 81.3249L23.5245 79.7919L22.4483 81.3249ZM23.0633 81.6315L22.7558 82.2447L23.217 81.9381L24.1396 80.5584L23.0633 81.6315ZM25.0621 82.858L23.6783 83.3179L22.9095 83.9311H23.217L25.0621 82.858ZM24.9083 84.2377L23.3708 84.391L22.9095 84.6976L23.3708 84.8509L24.9083 84.2377ZM24.7546 85.3108L23.3708 85.0042L22.7558 85.1575L23.217 85.3108H24.7546ZM24.4471 86.5373L23.217 85.9241L22.4483 86.0774L22.7558 86.384L24.4471 86.5373ZM23.6783 87.7637L22.602 86.6906H21.987L22.2945 87.3038L23.6783 87.7637ZM22.7558 88.8369L21.987 87.3038L21.5257 87.1505L21.6795 87.917L22.7558 88.8369ZM21.372 88.9902L21.8332 89.7567L21.5257 88.0703L21.372 87.917V88.9902ZM21.2182 79.4852L20.9107 80.865V81.4782L21.0645 81.0183L21.2182 79.4852ZM21.0645 90.2166L20.9107 88.9902L20.6032 88.3769V88.6835L21.0645 90.2166ZM20.4495 81.0183V79.7919L20.1419 81.6315V81.9381L20.4495 81.0183ZM19.9882 90.6765L20.2957 88.8369L20.1419 88.5302L19.8344 89.4501L19.9882 90.6765ZM15.3756 86.2307L16.9131 86.0774L17.3744 85.7707L16.9131 85.6174L15.3756 86.2307ZM15.5293 85.0042L16.9131 85.3108L17.5281 85.1575L17.0669 85.0042H15.5293ZM15.8368 83.9311L17.0669 84.5443L17.8356 84.391L17.5281 84.0844L15.8368 83.9311ZM19.6807 82.0914V81.7848L19.2194 80.2518L19.3732 81.4782L19.6807 82.0914ZM19.5269 89.4501V88.8369L19.3732 89.2968L19.2194 90.9831L19.5269 89.4501ZM18.9119 82.398V81.4782L18.4506 80.7117L18.9119 82.398ZM18.7582 83.3179L18.6044 82.7046L17.5281 81.6315L18.2969 83.1646L18.7582 83.3179ZM17.9894 83.3179L16.6056 82.7046L17.6819 83.7778H18.2969L17.9894 83.3179ZM17.8356 89.1435L17.9894 88.6835L17.5281 89.1435L16.7593 90.6765L17.8356 89.1435ZM17.3744 88.8369L17.6819 88.2236L17.2206 88.5302L16.2981 89.91L17.3744 88.8369ZM16.6056 87.1505L17.3744 86.5373H17.0669L15.3756 87.6104L16.6056 87.1505Z" fill="#A0A0A0"/>
<path d="M21.6796 69.2137C29.8285 64.4613 36.5938 68.2939 36.5938 77.6455C36.5938 86.9971 29.9823 98.495 21.8333 103.247C13.6843 108 6.91914 104.167 6.91914 94.8157C6.91914 85.3108 13.5306 73.8129 21.6796 69.2137ZM21.8333 101.408C29.0598 97.2686 35.0562 86.9971 35.0562 78.5653C35.0562 70.1336 29.0598 66.7608 21.8333 71.0534C14.6069 75.1926 8.61043 85.4641 8.61043 93.8959C8.61043 102.174 14.6069 105.547 21.8333 101.408Z" fill="#686868"/>
<path d="M20.6031 82.5514C21.3718 82.0915 22.1406 82.0915 22.6019 82.3981L24.1394 83.3179C24.6007 83.6245 24.9082 84.2377 24.9082 85.1576C24.9082 86.8439 23.6782 88.9902 22.1406 89.91C21.2181 90.5233 20.4493 90.2166 20.4493 90.2166L18.6043 89.1435C18.143 88.8369 17.8355 88.2237 17.8355 87.3038C17.8355 85.6175 19.0655 83.4712 20.6031 82.5514Z" fill="#686868"/>
<path d="M63.3468 20.616C63.3468 20.616 63.6543 20.4627 63.8081 20.4627C67.1907 19.8494 70.4195 18.4697 71.6496 17.8565C72.8796 17.2432 76.5697 15.5569 81.6436 11.8776C84.1037 10.1912 86.2562 8.04493 88.8701 6.66519C89.7926 6.20527 90.5614 6.20527 91.4839 6.66519L81.1823 17.5499L63.6543 23.8354C61.963 22.4556 62.578 20.9226 63.3468 20.616Z" fill="#333333"/>
<path d="M64.8843 20.616C66.7293 20.3094 70.5732 19.3896 75.9546 16.4768C76.2621 16.3235 76.5696 16.1702 76.8771 16.0169C80.106 14.1772 82.8735 12.1842 85.0261 10.4979C87.1787 8.81151 88.87 7.43176 90.1 6.81854C90.8688 6.35863 91.33 6.20532 91.6376 6.51193L105.783 14.7904C97.1727 22.1491 88.2549 28.7412 77.9534 31.9606L63.9617 23.8354C63.9617 23.8354 63.808 23.8354 63.808 23.6821C62.8855 23.0689 63.808 20.7693 64.8843 20.616Z" fill="#444342"/>
<path d="M78.7222 29.0478C80.5673 28.128 85.7949 28.5879 99.1716 18.6231C101.324 16.9367 103.015 15.5569 104.245 14.9437C105.014 14.4838 105.476 14.3305 105.783 14.6371C106.091 14.7904 106.706 15.2503 106.859 16.0169C107.936 20.0028 93.7902 27.8214 93.1752 28.128C88.255 30.8875 81.6436 33.8003 78.1072 31.8073C78.1072 31.8073 77.9535 31.8073 77.9535 31.654C77.1847 31.3474 77.7997 29.5077 78.7222 29.0478Z" fill="#333333"/>
<path d="M82.2585 30.4275C88.8699 28.7411 95.3276 24.6019 100.863 20.4626C103.015 18.7763 104.707 17.5498 105.783 16.9366C106.552 16.4767 106.859 16.4767 106.859 17.2432C107.013 18.623 101.478 23.3754 95.0201 27.0548C83.9498 33.4936 78.8759 32.5737 80.1059 31.194C80.5672 30.5808 81.4897 30.5808 82.2585 30.4275Z" fill="#282828"/>
<path d="M49.0476 54.1899L59.0417 37.633C59.5029 36.8664 60.5792 36.5598 61.5017 37.0197C62.2705 37.4797 62.578 38.5528 62.1167 39.4726L52.1227 56.0296C51.6614 56.7961 51.3539 57.7159 51.5077 58.6358L51.8152 67.0676C51.8152 67.9874 52.2765 68.9072 53.0452 69.5204L57.1966 72.7399C57.9654 73.3531 58.8879 73.3531 59.6567 72.8932L92.8676 53.2701L92.2526 52.9635L88.87 54.6498C88.4088 54.9565 87.7937 54.8031 87.3325 54.6498L78.876 50.204C78.7222 50.0507 78.5685 49.8974 78.4147 49.7441L70.727 41.0057C70.112 40.2391 70.112 39.166 70.8807 38.5528C71.6495 37.9396 72.7258 37.9396 73.3408 38.7061L80.721 47.1379L88.1012 50.9705L91.6376 49.2842C92.2526 48.9775 92.8676 49.1309 93.3289 49.4375L96.0965 51.1238C96.2502 51.2771 96.404 51.4304 96.5577 51.5837C97.019 52.197 97.1728 53.1168 97.019 53.8833C96.8652 54.6498 96.404 55.4164 95.6352 55.8763L61.5017 75.9593C60.5792 76.5725 59.5029 76.7258 58.5804 76.7258C57.3504 76.7258 56.1203 76.2659 55.044 75.4994L50.8927 72.2799C49.3551 71.0535 48.2788 69.2138 48.2788 67.2209L47.9713 58.7891C47.8176 57.256 48.2788 55.5697 49.0476 54.1899Z" fill="#B7B7B7"/>
<path d="M54.7367 67.2209C55.0442 66.4543 55.6592 65.5345 56.5818 64.6147C58.8881 62.0085 62.8857 58.7891 67.6521 56.1829C73.4948 52.8102 78.5687 51.2771 80.1062 52.3503L82.8738 53.8833C81.1825 52.9635 76.2623 54.3432 70.4197 57.7159C65.807 60.3221 61.8094 63.5415 59.3493 66.1477C58.5806 67.0676 57.9656 67.9874 57.5043 68.7539C57.3505 69.2138 57.1968 69.5204 57.1968 69.9804C57.1968 70.4403 57.3505 70.7469 57.8118 71.0535L55.0442 69.5204C54.7367 69.3671 54.4292 68.9072 54.4292 68.4473C54.4292 68.1407 54.583 67.6808 54.7367 67.2209Z" fill="#777674"/>
<path d="M70.2658 57.8693C77.4923 53.73 83.335 52.5036 83.335 55.1098C83.335 57.716 77.4923 63.235 70.2658 67.3742C63.0394 71.5134 57.1967 72.7399 57.1967 70.1337C57.1967 67.5275 63.0394 62.0085 70.2658 57.8693Z" fill="#605E5C"/>
<path d="M64.7307 43.9184V48.5176L61.8094 46.9845V42.3854L64.7307 43.9184Z" fill="#777674"/>
<path d="M64.7307 37.4796L67.4983 39.166L64.7307 43.9184L61.8094 42.3854L64.7307 37.4796Z" fill="#898785"/>
<path d="M68.7283 35.1801L71.4958 36.8664L67.4982 39.166L64.7307 37.4796L68.7283 35.1801Z" fill="#777674"/>
<path d="M67.4982 39.166L71.4958 36.8665L74.2634 38.3995V42.9987L71.4958 47.9044L67.4982 50.204L64.7307 48.5176V43.9185L67.4982 39.166Z" fill="#605E5C"/>
<path d="M73.9559 24.7552C80.1061 32.1139 65.3457 41.3122 53.0453 43.1519C44.7426 44.3783 39.9762 41.3122 38.7462 33.0337C38.4386 31.3474 38.2849 29.661 38.7462 27.9746C41.36 16.6301 67.9595 17.3966 73.9559 24.7552Z" fill="#FFAF24"/>
<path opacity="0.6" d="M42.5899 24.4487C42.2824 22.9156 46.8951 20.9226 52.584 20.1561C58.2729 19.3896 63.193 20.0028 63.3468 21.5359C63.6543 23.0689 59.0417 25.0619 53.3528 25.8284C47.6638 26.7482 42.8975 26.135 42.5899 24.4487Z" fill="url(#paint0_linear_1_3821)"/>
<path d="M90.5613 50.0507C90.5613 50.0507 92.7139 48.3643 95.9427 46.218C97.634 45.1449 99.4791 43.7652 101.632 42.5387C103.784 41.159 105.937 39.9325 108.243 38.5528C112.856 35.9466 117.468 33.4937 121.005 31.8074C124.541 30.121 127.155 29.2012 127.155 29.2012C127.77 29.0479 128.385 29.2012 128.692 29.6611C129.154 30.2743 129.154 31.1941 128.539 31.654C128.539 31.654 126.54 33.3404 123.157 35.64C119.928 37.9396 115.47 40.6991 110.857 43.3052C108.551 44.685 106.244 45.9114 104.092 46.9846C101.939 48.0577 99.7866 49.1308 98.0953 50.0507C94.559 51.737 92.0989 52.8102 92.0989 52.8102C91.4839 52.9635 90.8688 52.8102 90.4076 52.3502C89.7926 51.4304 89.9463 50.5106 90.5613 50.0507Z" fill="#B7B7B7"/>
<path d="M61.963 70.5935C62.1167 70.5935 62.2705 70.5935 62.4242 70.4402C62.7317 70.2869 62.8855 69.9803 62.8855 69.6736V56.4894C62.8855 52.6568 60.8867 49.1307 57.5041 47.2911L55.8128 46.3712C55.3515 46.0646 54.8903 46.2179 54.5828 46.6779C54.2752 47.1378 54.429 47.5977 54.8903 47.9043L56.7353 48.8241C59.5029 50.3572 61.1942 53.27 61.1942 56.4894V68.1406L60.8867 67.9873C60.4254 67.6807 59.9642 67.834 59.6567 68.2939C59.3491 68.7538 59.5029 69.2137 59.9642 69.5203L61.6555 70.4402C61.6555 70.4402 61.8092 70.5935 61.963 70.5935Z" fill="#B7B7B7"/>
<path d="M65.6532 68.4472C65.8069 68.4472 65.9607 68.4472 66.1144 68.2939C66.4219 68.1406 66.5757 67.834 66.5757 67.5273V54.3431C66.5757 50.5105 64.5769 46.9844 61.1943 45.1448L58.4267 43.6117C57.9654 43.3051 57.5042 43.4584 57.1967 43.9183C56.8891 44.3783 57.0429 44.8382 57.5042 45.1448L60.2717 46.6778C63.0393 48.2109 64.7306 51.1237 64.7306 54.3431V65.9943L64.4231 65.841C63.9619 65.5344 63.5006 65.6877 63.1931 66.1476C62.8856 66.6075 63.0393 67.0674 63.5006 67.374L65.1919 68.2939C65.3456 68.4472 65.4994 68.4472 65.6532 68.4472Z" fill="#B7B7B7"/>
<path d="M72.726 62.1618C73.0335 62.0085 73.341 62.0085 73.6485 62.0085L82.105 66.9143L80.4137 69.9804L71.9572 65.0746C71.8034 64.9213 71.6497 64.6147 71.6497 64.3081C71.4959 63.5415 71.9572 62.4684 72.726 62.1618Z" fill="#333333"/>
<path d="M79.9523 69.0605C79.9523 69.827 80.5673 70.1337 81.1823 69.827C81.7973 69.3671 82.4124 68.4473 82.4124 67.6808C82.4124 66.9142 81.7973 66.6076 81.1823 66.9142C80.4135 67.3742 79.9523 68.294 79.9523 69.0605Z" fill="#262626"/>
<path d="M31.5195 10.3446C31.6733 10.3446 31.9808 10.3446 32.1345 10.1913C32.7495 9.88466 33.057 8.96483 32.5958 8.35161L28.5982 1.14626C28.2906 0.53304 27.3681 0.22643 26.7531 0.686346C26.1381 0.992956 25.8306 1.91279 26.2918 2.52601L30.2895 9.73135C30.597 10.038 31.0582 10.3446 31.5195 10.3446Z" fill="#333333"/>
<path d="M37.3622 25.3685C37.6697 25.3685 38.131 25.2152 38.2847 24.9086C38.5922 24.4486 38.4385 23.6821 37.8235 23.5288L34.9021 21.8425C34.5946 21.6891 34.2871 21.2292 34.2871 20.9226L32.7496 9.73134C32.5958 9.11812 32.1345 8.81151 31.5195 8.81151C30.9045 8.65821 30.597 9.11812 30.597 9.73134L32.1345 20.9226C32.2883 21.9958 32.9033 22.9156 33.8258 23.3755L36.7472 25.0619C37.0547 25.2152 37.2084 25.3685 37.3622 25.3685Z" fill="#4E4E4E"/>
</g>
<defs>
<filter id="filter0_d_1_3821" x="-4.0105" y="0.464905" width="137.032" height="115.453" filterUnits="userSpaceOnUse" color-interpolation-filters="sRGB">
<feFlood flood-opacity="0" result="BackgroundImageFix"/>
<feColorMatrix in="SourceAlpha" type="matrix" values="0 0 0 0 0 0 0 0 0 0 0 0 0 0 0 0 0 0 127 0" result="hardAlpha"/>
<feOffset dy="4"/>
<feGaussianBlur stdDeviation="2"/>
<feComposite in2="hardAlpha" operator="out"/>
<feColorMatrix type="matrix" values="0 0 0 0 0 0 0 0 0 0 0 0 0 0 0 0 0 0 0.25 0"/>
<feBlend mode="normal" in2="BackgroundImageFix" result="effect1_dropShadow_1_3821"/>
<feBlend mode="normal" in="SourceGraphic" in2="effect1_dropShadow_1_3821" result="shape"/>
</filter>
<linearGradient id="paint0_linear_1_3821" x1="63.4221" y1="23.0646" x2="42.6075" y2="23.0646" gradientUnits="userSpaceOnUse">
<stop stop-color="#846918"/>
<stop offset="0.1443" stop-color="#9E7D1C"/>
<stop offset="0.4096" stop-color="#C89D21"/>
<stop offset="0.6501" stop-color="#E6B526"/>
<stop offset="0.8549" stop-color="#F8C328"/>
<stop offset="1" stop-color="#FFC829"/>
</linearGradient>
</defs>
</svg>
