<?xml version="1.0" encoding="utf-8"?>
<!-- Svg Vector Icons : http://www.onlinewebfonts.com/icon -->
<!DOCTYPE svg PUBLIC "-//W3C//DTD SVG 1.1//EN" "http://www.w3.org/Graphics/SVG/1.1/DTD/svg11.dtd">
<svg version="1.1" xmlns="http://www.w3.org/2000/svg" xmlns:xlink="http://www.w3.org/1999/xlink" x="0px" y="0px" viewBox="0 0 1000 1000" enable-background="new 0 0 1000 1000" xml:space="preserve">
<metadata> Svg Vector Icons : http://www.onlinewebfonts.com/icon </metadata>
<g><g transform="translate(0.000000,511.000000) scale(0.100000,-0.100000)"><path d="M4726.8,4834c-513.6-43.7-935.4-212-1232.6-491.7c-321.3-301.6-496.1-668.8-568.2-1199.9c-26.2-188-28.4-754-4.4-1038.1c15.3-181.4,13.1-188-45.9-262.3c-187.9-238.2-194.5-692.8-13.1-1033.8c72.1-131.1,205.4-255.7,279.7-255.7c28.4,0,43.7-32.8,63.4-133.3c65.6-327.8,218.6-671,459-1027.2c292.9-434.9,585.7-690.6,900.4-786.8c133.3-41.5,192.3-45.9,496.1-37.1c308.2,6.6,356.3,15.3,478.6,65.6c212,87.4,454.6,249.1,574.8,384.6c330,367.2,684.1,1046.9,754,1451.2c13.1,67.7,24,80.9,87.4,91.8c100.5,19.7,253.5,192.3,314.7,356.3c65.6,179.2,89.6,393.4,65.6,563.9c-24.1,172.7-59,260.1-139.9,356.2l-59,69.9l21.9,400c48.1,883-80.9,1446.8-430.6,1883.9C6346.3,4667.9,5598.8,4908.3,4726.8,4834z"/><path d="M3262.5-1947.8c-751.8-284.1-1490.5-686.3-2104.7-1143c-255.7-190.1-699.4-644.7-819.6-837.1c-122.4-198.9-201.1-404.3-222.9-574.8L100-4627.3h1748.4h1748.4l35,157.4c17.5,87.4,98.3,483,177,876.4l142.1,716.9l-122.4,365c-172.7,522.4-231.7,681.9-247,681.9C3575-1829.8,3430.8-1882.2,3262.5-1947.8z"/><path d="M4320.3-1877.9c10.9-28.4,128.9-303.8,260.1-612l242.6-561.7l-260.1-780.2c-144.2-430.6-257.9-784.6-253.5-789c2.2-4.4,316.9-4.4,697.2-2.2l688.4,6.6l-260.1,780.2l-260.1,782.4l231.7,539.8c128.9,299.4,246.9,574.8,262.3,614.1l30.6,69.9H5000h-699.4L4320.3-1877.9z"/><path d="M6392.2-1845.1c-4.4-10.9-85.2-244.8-177-524.5l-168.3-507l166.1-837.1c91.8-461.1,170.5-854.5,177-874.2c10.9-37.2,113.7-39.3,1761.6-39.3H9900l-15.3,126.8c-85.2,688.4-944.2,1499.3-2323.2,2187.7c-362.8,183.6-607.6,288.5-939.8,408.7C6394.4-1821,6405.3-1823.2,6392.2-1845.1z"/></g></g>
</svg>