<svg width="142" height="113" viewBox="0 0 142 113" fill="none" xmlns="http://www.w3.org/2000/svg">
<path d="M37.9339 35.5866C37.5982 35.2493 37.2625 34.7433 36.759 34.912C36.5911 34.912 36.4233 35.0806 36.2554 35.2493C36.0876 35.5866 35.7519 37.9478 35.7519 38.2851C35.7519 40.1403 36.0876 41.4896 36.2554 41.8269C36.4233 42.1642 36.759 42.6702 37.2625 42.6702C38.1018 43.0075 38.941 42.1642 39.2767 41.4896C39.6124 40.6463 39.9481 39.4657 39.6124 38.6224C38.941 37.4418 38.6053 36.5985 37.9339 35.5866Z" fill="#316DC3"/>
<path opacity="0.7" d="M36.2555 35.0806C36.4233 34.912 36.4233 34.912 36.5912 34.912C37.0947 34.7433 37.5983 35.2493 37.7661 35.5866C38.4375 36.4299 38.9411 37.4418 39.2768 38.6224C39.6125 39.4657 39.4446 40.6463 38.9411 41.4896C39.1089 41.6582 36.5912 38.1165 36.2555 35.0806Z" fill="url(#paint0_linear_1_4015)"/>
<path d="M46.8299 84.1596L69.8251 97.4835L75.1963 89.388L72.5107 83.485L64.454 78.088L46.8299 84.1596Z" fill="#26231F"/>
<path d="M130.586 39.6343L138.643 45.2L138.811 45.706C140.322 49.0791 140.154 52.9582 138.14 55.994L136.125 59.1985L112.794 45.706L130.586 39.6343Z" fill="#26231F"/>
<path d="M54.2152 88.0388C56.3972 86.6896 58.5793 86.6896 59.9221 87.5328L64.9575 90.4L53.376 110.133L48.3405 107.266C46.8299 106.422 45.9906 104.567 45.9906 102.037C46.1585 96.809 49.8511 90.5687 54.2152 88.0388Z" fill="#26231F"/>
<path d="M51.1939 104.904C51.1939 110.133 54.8866 112.157 59.2506 109.627C63.7826 107.097 67.3074 100.688 67.3074 95.6283C67.3074 90.3999 63.6147 88.376 59.2506 90.9059C54.8866 93.4357 51.1939 99.8447 51.1939 104.904Z" fill="#3F3932"/>
<path d="M59.4184 106.928C62.4397 105.242 64.9574 100.857 65.1252 97.315C65.1252 93.7732 62.7754 92.0866 59.5862 93.9418C56.565 95.6284 54.0472 100.013 53.8794 103.555C53.8794 107.097 56.2293 108.615 59.4184 106.928Z" fill="#D8D8D8"/>
<path d="M59.4183 106.085C62.1039 104.567 64.2859 100.857 64.2859 97.8209C64.2859 94.785 62.2717 93.4358 59.5861 94.785C56.9005 96.3029 54.7185 100.013 54.7185 103.049C54.5507 106.254 56.7327 107.603 59.4183 106.085Z" fill="#A8A8A8"/>
<path d="M59.0827 103.386C60.5934 102.543 61.7683 100.519 61.7683 98.6641C61.7683 96.9775 60.5934 96.1342 59.0827 96.9775C57.5721 97.8208 56.3972 99.8447 56.3972 101.7C56.3972 103.555 57.5721 104.23 59.0827 103.386Z" fill="#D8D8D8"/>
<path d="M56.2293 98.6641C56.9007 97.4835 57.7399 96.4716 58.9149 95.7969C60.9291 94.785 62.4397 95.6283 62.4397 97.9895C62.4397 100.351 60.7612 103.049 58.9149 104.061C57.0685 105.073 55.5579 104.23 55.3901 102.206C55.3901 102.037 55.3901 102.037 55.3901 101.869C55.2222 100.857 55.5579 99.8447 56.2293 98.6641ZM56.565 102.037C56.565 103.555 57.7399 104.23 59.2506 103.555C60.7612 102.712 61.9362 100.688 61.9362 98.8328C61.9362 97.1462 60.7612 96.3029 59.2506 97.1462C58.4113 97.6522 57.7399 98.3268 57.2364 99.3387C57.0685 99.6761 56.9007 100.182 56.7328 100.519C56.565 101.025 56.565 101.363 56.565 101.869C56.565 101.869 56.565 101.869 56.565 102.037Z" fill="#BEBEBE"/>
<path d="M120.012 49.9224C122.194 48.5731 124.376 48.5731 125.719 49.4164L130.754 52.2835L119.173 72.0164L114.137 69.1492C112.627 68.3059 111.787 66.4507 111.787 63.9209C111.955 58.8612 115.48 52.4522 120.012 49.9224Z" fill="#26231F"/>
<path d="M116.991 66.9567C116.991 72.1851 120.683 74.209 125.048 71.6791C129.579 69.1492 133.104 62.7403 133.104 57.6806C133.104 52.4522 129.412 50.4284 125.048 52.9582C120.516 55.4881 116.991 61.7284 116.991 66.9567Z" fill="#3F3932"/>
<path d="M125.048 68.8118C128.069 67.1253 130.587 62.7402 130.754 59.1984C130.754 55.6566 128.405 53.97 125.215 55.8253C122.194 57.5118 119.676 61.8969 119.509 65.4387C119.509 68.9805 122.026 70.667 125.048 68.8118Z" fill="#D8D8D8"/>
<path d="M125.047 67.9685C127.733 66.4505 129.915 62.7401 129.915 59.7043C129.915 56.6685 127.901 55.3192 125.215 56.6685C122.53 58.1864 120.348 61.8968 120.348 64.9326C120.348 68.1371 122.362 69.4864 125.047 67.9685Z" fill="#A8A8A8"/>
<path d="M124.88 65.4386C126.222 64.5953 127.565 62.4028 127.565 60.7162C127.565 59.0297 126.39 58.1864 124.88 59.0297C123.369 59.873 122.194 61.8968 122.194 63.7521C122.194 65.4386 123.369 66.2819 124.88 65.4386Z" fill="#D8D8D8"/>
<path d="M121.858 60.5476C122.53 59.367 123.369 58.3551 124.544 57.6804C126.558 56.6685 128.069 57.5118 128.069 59.873C128.069 62.2341 126.39 64.9327 124.544 65.9446C122.698 66.9565 121.187 66.1132 121.019 64.0894C121.019 63.9207 121.019 63.9207 121.019 63.7521C121.019 62.9088 121.355 61.7282 121.858 60.5476ZM122.194 63.9207C122.194 65.4386 123.369 66.1132 124.88 65.4386C126.223 64.5953 127.565 62.4028 127.565 60.7162C127.565 59.0297 126.39 58.1864 124.88 59.0297C124.04 59.5356 123.369 60.2103 122.866 61.2222C122.698 61.5595 122.53 62.0655 122.362 62.4028C122.194 62.9088 122.194 63.2461 122.194 63.7521C122.194 63.7521 122.194 63.9207 122.194 63.9207Z" fill="#BEBEBE"/>
<path d="M4.3642 67.8C6.88193 63.7523 11.7495 59.3672 15.7779 56.6687C26.8559 49.2478 31.5557 45.0314 41.6266 36.4299C45.1514 33.3941 51.5297 27.3224 55.2224 24.6239C56.733 23.612 87.6172 5.39704 96.0096 0.674653C97.3524 -0.16863 99.0309 -0.16863 100.374 0.505997C107.591 4.04779 126.222 14.6732 130.083 17.709L131.929 19.9015C133.776 23.2747 137.468 27.6597 137.972 27.997C140.657 29.6836 141.329 32.0448 141.497 33.0567C141.664 34.2373 141.832 35.4179 141.832 36.5985V50.5971C141.832 51.7776 141.497 52.7896 140.993 53.8015C140.154 55.3194 138.475 57.8493 136.461 59.3672C136.461 51.103 133.776 46.0433 125.887 50.5971C118.333 54.9821 115.312 63.415 115.312 71.8478L69.993 97.6523C69.993 89.5568 67.3075 84.4971 59.4186 89.0508C52.2011 93.2672 49.012 101.531 48.8441 109.627C45.9907 111.145 47.5013 110.302 46.4942 110.807C44.6479 111.651 42.4659 112.494 40.4517 112.831C30.5486 114.518 20.6455 109.121 12.9245 104.061C7.55332 100.519 3.52496 96.9777 1.51078 93.7732C0.671536 92.4239 0.167985 90.7374 0.167985 89.0508C0.000136196 84.6657 0.167985 74.5463 4.3642 67.8Z" fill="#FFC646"/>
<path opacity="0.3" d="M25.5131 110.807C30.2129 112.663 35.2484 113.675 40.2838 112.831C42.298 112.494 44.48 111.651 46.3264 110.807C47.3335 110.301 45.8228 111.145 48.6762 109.627C48.8441 104.399 50.1869 99.1702 53.0403 94.9537C44.6479 105.748 35.5841 111.313 25.5131 110.807ZM141.497 43.3448V50.597C141.497 51.7776 141.161 52.7896 140.657 53.8015C139.818 55.3194 138.14 57.8493 136.125 59.3672C136.125 53.9702 134.95 49.9224 131.929 49.0791L141.497 43.3448ZM119.508 56.3314C116.487 60.7164 115.144 66.2821 115.144 71.6791L69.8252 97.4836C69.8252 92.2552 68.6502 88.3761 65.629 87.3642L119.508 56.3314Z" fill="url(#paint1_linear_1_4015)"/>
<path opacity="0.7" d="M8.72814 92.2553C3.69268 88.2075 0.503555 83.8224 0.503555 79.2687C1.0071 75.3896 2.18205 71.3418 4.36408 67.9687C6.88181 63.9209 11.7494 59.5359 15.7778 56.8373C26.8558 49.4164 31.5556 45.2 41.6265 36.5985C45.1513 33.5627 51.5296 27.4911 55.2222 24.7926C56.7329 23.612 87.617 5.5657 96.0095 0.674653C97.3523 -0.16863 99.0308 -0.16863 100.374 0.505997C107.759 4.04779 126.726 15.0105 130.083 17.709C125.215 20.2388 115.816 25.6359 106.584 30.6956C96.8487 36.2612 87.1135 41.6582 85.435 43.8508C81.4066 48.7418 67.8109 70.3299 67.8109 70.3299C63.1111 75.0523 52.0331 84.6657 47.1655 89.2194C44.1442 93.6045 43.1371 96.303 42.4657 99.0015C42.13 100.182 31.5556 102.881 18.6312 97.6523C14.9385 96.4717 11.7494 94.6164 8.72814 92.2553Z" fill="url(#paint2_linear_1_4015)"/>
<path opacity="0.4" d="M57.0686 24.6239C56.7329 24.2866 56.7329 23.6119 57.2364 23.2746C64.1182 18.8895 88.6241 4.72237 95.8416 0.505952C97.1844 -0.337331 98.8629 -0.337331 100.206 0.337296C107.759 4.04774 126.726 15.0104 130.083 17.7089C115.983 25.6358 99.1986 34.7433 89.2955 40.9836C88.2884 41.6582 87.1135 41.6582 85.9386 41.3209C80.2317 38.9597 63.279 31.7074 57.0686 24.6239Z" fill="url(#paint3_linear_1_4015)"/>
<path opacity="0.6" d="M45.1515 91.2433C23.1633 95.9657 1.34295 76.5702 3.69283 69.1493C3.86068 68.6433 4.19638 68.306 4.53208 67.8C7.04981 63.7523 11.9174 59.3672 15.9458 56.6687C21.1491 53.1269 24.8418 50.4284 28.3666 47.5612C42.4659 66.6194 67.811 70.3299 67.811 70.3299C63.1113 75.0523 52.0333 84.6657 47.1656 89.2194C46.6621 89.8941 45.4872 91.0746 45.1515 91.2433Z" fill="url(#paint4_linear_1_4015)"/>
<path opacity="0.2" d="M64.1183 78.9313L73.35 64.7642C73.35 64.9328 73.5178 64.9328 73.5178 65.1015L64.454 79.2686V87.3642C64.2861 87.3642 64.2861 87.3642 64.1183 87.3642V78.9313Z" fill="#FFC646"/>
<path opacity="0.2" d="M123.033 33.2254C123.201 33.2254 123.201 33.2254 123.201 33.3941C124.208 36.7672 125.047 46.3806 125.383 50.4284C125.215 50.4284 125.215 50.597 125.047 50.597C124.712 46.5493 123.705 36.7672 122.865 33.3941C122.865 33.3941 123.033 33.3941 123.033 33.2254Z" fill="#FFC646"/>
<path opacity="0.2" d="M96.3452 40.6463C96.5131 40.6463 96.5131 40.4777 96.6809 40.4777C97.3523 45.5374 99.3665 59.8732 99.3665 78.4254L115.144 68.9807C115.144 69.1493 115.144 69.318 115.144 69.318L99.1987 78.5941L69.8251 95.7971C69.8251 95.6284 69.8251 95.6284 69.8251 95.4598L99.0308 78.4254C99.0308 60.0418 97.1845 45.706 96.3452 40.6463Z" fill="#FFC646"/>
<path d="M58.747 68.6433C48.5082 65.7761 38.6052 59.5358 30.2127 51.4403C29.2056 50.597 29.3735 48.9104 30.3806 48.0671L56.2293 25.6358C62.104 31.0328 71.8392 36.4298 84.26 41.8268C78.0496 52.2836 70.8321 62.403 65.2931 67.294C63.1111 69.1492 61.2647 69.3179 58.747 68.6433Z" fill="#282523"/>
<path d="M63.6148 64.5954C63.9505 64.5954 64.1183 64.5954 64.454 64.5954C66.4682 64.4268 67.9788 62.9089 69.1538 61.391C72.3429 57.3432 79.0569 48.7417 81.9103 44.0193C82.246 43.5133 81.9103 42.8387 81.4067 42.6701C69.993 37.6104 61.6006 32.7193 56.2294 28.1656C55.7259 27.8283 55.2223 27.8283 54.7188 28.1656L34.5769 45.8745C34.2413 46.2118 34.0734 46.5492 34.0734 47.0551C34.0734 47.5611 34.2413 47.8984 34.5769 48.2357C43.6408 56.8372 52.2011 62.0656 61.7684 64.5954C62.4398 64.5954 63.1112 64.5954 63.6148 64.5954Z" fill="#35312D"/>
<path d="M85.0994 46.7179C86.4422 44.6941 88.2885 42.8388 90.4706 41.6582C93.9954 39.6344 122.194 22.9373 125.551 22.0941C126.894 21.7567 130.251 27.3224 132.601 33.0567C132.601 33.0567 79.2247 64.2582 72.1751 68.1373C71.6715 68.306 71.168 67.9687 71.5037 67.4627C73.5178 64.2582 81.4067 52.4523 85.0994 46.7179Z" fill="#282523"/>
<path d="M136.461 30.5268C136.629 30.6955 136.797 30.8642 136.964 30.6955C137.636 30.3582 138.979 29.3462 138.811 28.6716C138.811 28.6716 131.761 19.0582 130.922 18.8895C130.754 19.0582 129.076 19.7328 129.411 20.2388C129.411 20.2388 132.936 25.1298 136.461 30.5268Z" fill="#35312D"/>
<path d="M27.0236 92.2552C28.1986 91.2433 35.0804 91.2433 45.8227 87.5328C47.5012 87.3641 46.6619 91.5806 45.6548 93.6044C45.1513 94.4477 44.6478 95.1224 44.3121 95.9656C43.8085 96.303 43.4728 96.6403 43.1371 96.8089C42.6336 97.1462 41.9622 97.1462 41.4586 97.3149C36.0875 98.3268 30.7163 98.3268 26.3522 97.3149C24.8416 96.8089 26.0166 93.0985 27.0236 92.2552Z" fill="#F0FDFF"/>
<path d="M44.1442 95.6283C45.1513 93.0985 46.3262 90.4 45.8227 87.7015C47.3333 87.3641 48.8439 87.3641 49.0118 88.5447C49.1796 90.9059 45.6548 94.9537 43.8085 96.4716C43.9763 96.1343 44.1442 95.797 44.1442 95.6283Z" fill="#E9751C"/>
<path d="M4.19628 72.0164C4.19628 71.3418 4.19628 70.8358 4.19628 70.3298C4.36413 68.9806 4.53197 67.8 5.53906 66.4507C4.53197 67.6313 3.69273 68.9806 2.85349 70.4985C2.18209 72.0164 1.34285 73.8716 1.34285 75.3895C1.34285 77.5821 1.84641 79.4373 2.34995 79.7746C2.68565 79.9433 3.18919 79.1 3.52489 78.594C4.69983 76.2328 4.19628 74.3776 4.19628 72.0164Z" fill="#F0FDFF"/>
<path d="M23.499 91.2432C22.9954 92.7611 21.3169 96.6402 20.3098 96.4716C15.6101 95.4596 6.04269 88.5447 4.6999 85.8462C4.19636 84.8343 6.0427 79.0999 6.54625 78.9313C8.72828 81.2925 11.7496 84.1596 15.1065 86.1835C19.3028 88.7134 23.6668 90.5686 23.499 91.2432Z" fill="#FFC646"/>
<path d="M15.1064 86.0149C17.4563 87.5328 19.9741 88.7134 21.6525 89.5567C22.8275 90.2313 23.6667 90.5686 23.4989 91.0746C23.1632 92.4238 21.9882 95.1223 20.9811 95.9656C16.2814 94.9537 6.88184 88.0387 5.53905 85.3402C5.20335 84.4969 6.37829 80.4492 7.04969 78.9313C9.06387 81.4611 11.9173 84.1596 15.1064 86.0149Z" fill="#35312D"/>
<path opacity="0.3" d="M43.6407 79.4373C49.6833 75.2208 54.7188 70.1611 54.7188 70.1611C54.7188 70.1611 53.8795 71.679 52.201 73.5343C50.5225 75.5581 47.8369 78.088 44.8157 80.2805C41.7944 82.4731 38.1017 84.3283 35.2483 85.5089C32.3949 86.6895 30.2128 87.0268 30.2128 87.0268C30.2128 87.0268 32.227 86.3522 34.7447 85.0029C37.4303 83.485 40.6195 81.4611 43.6407 79.4373Z" fill="#FFC646"/>
<g opacity="0.6">
<path opacity="0.6" d="M24.5061 57.1747C27.0238 55.6568 28.8701 54.8135 28.8701 54.8135C28.8701 54.8135 22.6597 59.0299 17.6243 64.0896C15.1065 66.6194 12.9245 69.1493 11.5817 71.1732C10.0711 73.1971 9.39966 74.715 9.39966 74.715C9.39966 74.715 9.56751 73.1971 10.7425 71.0045C11.7495 68.812 13.7637 65.9448 16.4493 63.5836C18.967 60.8851 21.9883 58.6926 24.5061 57.1747Z" fill="url(#paint5_linear_1_4015)"/>
</g>
<path d="M70.9999 22.6L88.9598 33.0567C89.9669 33.7313 91.8132 33.7313 92.8203 33.0567L99.8699 29.0089C100.877 28.3343 100.877 27.3224 99.8699 26.8164L81.9101 16.3597C80.903 15.685 79.0567 15.685 78.0496 16.3597L70.9999 20.4074C69.9929 20.9134 69.9929 21.9253 70.9999 22.6Z" fill="#282523"/>
<path d="M71.8393 23.106L88.9599 33.0567C89.967 33.5627 91.6455 33.5627 92.6526 33.0567L99.0308 29.3463C100.038 28.8403 100.038 27.8284 99.0308 27.3224L81.9102 17.3717C80.9032 16.8657 79.2247 16.8657 78.2176 17.3717L71.8393 21.0821C71.0001 21.5881 71.0001 22.4314 71.8393 23.106Z" fill="#35312D"/>
<path d="M91.4776 62.2343L95.8417 59.7045C96.0095 59.5358 96.3452 59.1985 96.3452 59.0298V58.3552C96.3452 58.1866 96.1774 58.0179 95.8417 58.1866L91.4776 60.7164C91.3098 60.8851 90.9741 61.2224 90.9741 61.391V62.0657C90.9741 62.2343 91.1419 62.2343 91.4776 62.2343Z" fill="#3677D6"/>
<path d="M117.662 47.0552L122.026 44.5253C122.194 44.3567 122.53 44.0194 122.53 43.8507V43.1761C122.53 43.0074 122.362 42.8388 122.026 43.0074L117.662 45.5373C117.494 45.7059 117.158 46.0432 117.158 46.2119V46.8865C117.158 47.0552 117.326 47.2238 117.662 47.0552Z" fill="#3677D6"/>
<path d="M85.267 62.9089C85.9384 63.7522 85.267 66.2821 84.092 66.7881C83.9242 66.9567 83.5885 66.9567 83.4206 66.9567C81.0708 67.294 77.7138 67.294 76.7067 65.9448C76.371 65.6075 76.371 65.2701 76.5388 64.7642C76.7067 64.0895 77.5459 61.0537 78.2173 60.7164C78.7209 60.3791 84.9313 62.403 85.267 62.9089Z" fill="#316DC3"/>
<path opacity="0.7" d="M77.2103 62.7403C77.546 61.897 77.8817 60.8851 78.2174 60.7164C78.721 60.3791 84.9314 62.403 85.2671 62.9089C85.4349 63.0776 85.4349 63.2463 85.6028 63.5836C82.4137 64.0895 78.721 63.4149 77.2103 62.7403Z" fill="url(#paint6_linear_1_4015)"/>
<path d="M74.0212 64.9328C74.189 64.9328 76.2032 64.4268 76.7068 64.4268C77.8817 64.2582 79.5602 66.4507 79.0566 66.9567C78.8888 67.1253 73.6855 67.4626 73.5176 67.4626C72.6784 67.6313 72.8462 65.1015 74.0212 64.9328Z" fill="#282523"/>
<path d="M137.804 52.1149L139.314 51.2716C139.482 51.103 139.65 50.9343 139.65 50.597V50.4283C139.65 50.2597 139.482 50.091 139.314 50.2597L137.804 51.103C137.636 51.2716 137.468 51.4403 137.468 51.7776V51.9462C137.468 52.1149 137.636 52.2836 137.804 52.1149Z" fill="#E9751C"/>
<path d="M70.8321 91.0746L72.3428 90.2313C72.5106 90.0626 72.6785 89.894 72.6785 89.5566V89.388C72.6785 89.2193 72.5106 89.0507 72.3428 89.2193L70.8321 90.0626C70.6643 90.2313 70.4964 90.3999 70.4964 90.7372V90.9059C70.3286 91.0746 70.4964 91.0746 70.8321 91.0746Z" fill="#E9751C"/>
<path d="M141.496 34.9119C141.496 34.9119 142.504 38.6224 141.496 43.6821C140.322 44.0194 139.818 38.9597 139.818 36.9358C139.818 36.4298 139.986 35.9239 140.489 35.7552L141.496 34.9119Z" fill="#991111"/>
<path d="M6.71399 93.6045L15.7778 99.6761V103.049L6.71399 96.9776V93.6045Z" fill="#D8D8D8"/>
<path d="M38.1017 110.639C33.2341 111.145 29.0378 110.301 27.1915 109.627C26.3523 109.289 26.688 108.278 26.688 107.434C26.688 107.097 27.0237 106.76 27.3594 106.76C29.2057 106.928 32.7305 107.097 37.9338 105.41C38.4374 105.242 38.9409 105.579 38.9409 106.085V109.458C38.9409 110.133 38.6052 110.639 38.1017 110.639Z" fill="#35312D"/>
<path d="M0.167832 82.8104C0.167832 83.4851 0.335684 84.8343 0.839233 87.1955C1.00708 87.7015 1.00708 88.2074 1.00708 88.5448C1.00708 89.2194 1.00708 90.5686 1.00708 91.2433C1.00708 91.5806 0.839233 91.4119 0.839233 91.4119C0.335684 90.7373 -1.23274e-05 89.7254 -0.167862 88.8821V88.7134C-1.23274e-05 87.1955 -1.74547e-05 85.1716 0.167832 82.8104Z" fill="#35312D"/>
<defs>
<linearGradient id="paint0_linear_1_4015" x1="39.5626" y1="38.1694" x2="36.2996" y2="38.1694" gradientUnits="userSpaceOnUse">
<stop stop-color="#377ADC"/>
<stop offset="1" stop-color="#408EFF"/>
</linearGradient>
<linearGradient id="paint1_linear_1_4015" x1="83.5393" y1="77.0938" x2="89.1093" y2="86.6952" gradientUnits="userSpaceOnUse">
<stop stop-color="#408EFF"/>
<stop offset="1" stop-color="#326FC7"/>
</linearGradient>
<linearGradient id="paint2_linear_1_4015" x1="111.023" y1="101.712" x2="51.8201" y2="36.3612" gradientUnits="userSpaceOnUse">
<stop offset="0.0640394" stop-color="#2E66B7"/>
<stop offset="1" stop-color="#408EFF"/>
</linearGradient>
<linearGradient id="paint3_linear_1_4015" x1="140.085" y1="73.0813" x2="82.3785" y2="9.38293" gradientUnits="userSpaceOnUse">
<stop stop-color="#19417B"/>
<stop offset="0.1831" stop-color="#1F529E"/>
<stop offset="0.4364" stop-color="#2567C8"/>
<stop offset="0.6659" stop-color="#2A76E6"/>
<stop offset="0.8615" stop-color="#2D80F8"/>
<stop offset="1" stop-color="#2E83FF"/>
</linearGradient>
<linearGradient id="paint4_linear_1_4015" x1="42.0646" y1="62.7997" x2="17.9922" y2="86.1244" gradientUnits="userSpaceOnUse">
<stop stop-color="#19417B"/>
<stop offset="0.1831" stop-color="#1F529E"/>
<stop offset="0.4364" stop-color="#2567C8"/>
<stop offset="0.6659" stop-color="#2A76E6"/>
<stop offset="0.8615" stop-color="#2D80F8"/>
<stop offset="1" stop-color="#2E83FF"/>
</linearGradient>
<linearGradient id="paint5_linear_1_4015" x1="28.8636" y1="64.7248" x2="9.43323" y2="64.7248" gradientUnits="userSpaceOnUse">
<stop stop-color="#102441"/>
<stop offset="0.1402" stop-color="#1A3A68"/>
<stop offset="0.3554" stop-color="#27589D"/>
<stop offset="0.5564" stop-color="#326FC8"/>
<stop offset="0.7371" stop-color="#3A80E6"/>
<stop offset="0.891" stop-color="#3E8AF8"/>
<stop offset="1" stop-color="#408EFF"/>
</linearGradient>
<linearGradient id="paint6_linear_1_4015" x1="85.5414" y1="62.2254" x2="77.1702" y2="62.2254" gradientUnits="userSpaceOnUse">
<stop stop-color="#377ADC"/>
<stop offset="1" stop-color="#408EFF"/>
</linearGradient>
</defs>
</svg>
